Patient4_TMGait_0pt5_01_right_13_EMG.mot
version=1
nRows=23
nColumns=33
inDegrees=no
endheader
time	1LAddLong	2LGlutMax	3LGlutMed	4LIliopsoas	5LSemiMemb	6LBicFemLong	7LRecFem	8LVastMed	9LVastLat	10LGasMed	11LTibAnt	12lTibPost	13LPeroneusLong	14LSol	15LExtDigLong	16LFlexDigLong	17RAddLong	18RGlutMax	19RGlutMed	20RIliopsoas	21RSemiMemb	22RBicFemLong	23RRecFem	24RVastMed	25RVastLat	26RGasMed	27RTibAnt	28RTibPost	29RPeroneusLong	30RSol	31RExtDigLong	32RFlexDigLong
17.67	0.006714	0.034943	0.037842	0.005798	0.029449	-0.11185	-0.12589	0.038147	0.44174	-0.024872	-0.006561	-0.002136	0.006866	0.18249	-0.013123	-0.015411	0.07019	-0.08606	0.017853	-0.10483	-0.026245	0.15579	-0.16342	-0.065765	-0.031433	-0.003052	0.43488	-0.005646	-0.22263	-0.076294	0.001221	-0.019226
17.671	0.000458	0.039368	-0.059967	-0.000458	-0.079346	0.031891	-0.25421	0.027771	0.61035	-0.024567	0.010529	-0.000916	0.00885	0.18601	-0.032654	-0.021667	0.013885	-0.17059	-0.00885	-0.16052	-0.18356	0.21774	-0.19867	0.032654	-0.024719	0.004425	0.73181	-0.005646	0.052948	-0.23544	-0.000153	-0.019989
17.672	-0.008392	0.13687	-0.10101	0.021362	-0.18417	0.22873	-0.19699	0.016174	0.59921	-0.019684	0.14603	-0.003204	-0.02243	0.20081	-0.022888	-0.011749	-0.007019	-0.19852	-0.058289	-0.15961	-0.17288	0.20905	-0.19699	-0.010223	-0.043335	0.015411	-0.062561	-0.003204	0.16464	-0.34149	0.006714	-0.017395
17.673	-0.019073	0.10178	-0.15656	0.006409	-0.19104	0.20371	-0.095367	-0.004425	0.41672	-0.003357	0.16769	-0.007172	-0.0354	0.20355	0.010529	-0.017548	-0.004272	-0.18875	-0.067749	-0.044708	-0.017548	0.13046	-0.2066	0.020905	-0.037842	0.016785	-0.37537	-0.003204	0.076141	-0.35523	0	-0.01297
17.674	-0.010071	0.13412	-0.12741	0.000763	-0.12985	0.05249	-0.003815	-0.018616	0.036316	0.005493	0.066833	-0.001984	-0.040588	0.21668	0.094147	-0.039978	-0.026245	-0.14465	-0.094757	0.056458	0.04837	-0.063019	-0.25604	0.043182	-0.018616	0.023956	-0.26413	-0.004578	0.019836	-0.3183	-0.001373	-0.012207
17.675	0.002747	0.16251	0.10803	0.000153	0.005646	-0.054474	0.052185	-0.01297	-0.3865	0.009613	-0.12421	-0.014191	-0.08194	0.2179	0.066528	-0.03891	-0.002899	-0.11765	0.040283	0.12207	0.073242	-0.24124	-0.24185	-0.024872	-0.027161	0.00473	-0.383	-0.003815	0.044403	-0.2478	0.005188	-0.024719
17.676	0.012512	0.13947	0.30945	0.00473	0.22736	0.035706	0.13199	0.02533	-0.78308	0.026855	-0.28015	-0.007172	-0.0914	0.22201	0.00824	-0.049744	-0.000153	-0.20798	0.10727	0.18845	0.071564	-0.45105	-0.22827	-0.026093	-0.012207	-0.004578	-0.40085	-0.006256	-0.025482	-0.22797	0.002899	-0.025635
17.677	0.001678	0.081787	0.23605	0.019531	0.13779	0.11841	0.20096	0.052185	-0.86517	0.027771	-0.41641	-0.010834	-0.096893	0.24994	-0.03479	-0.037231	0.019684	-0.14328	-0.00885	0.23392	0.036926	-0.57098	-0.22629	-0.019226	-0.009155	-0.011597	-0.1506	-0.003815	-0.077972	-0.029907	0.002899	-0.023041
17.678	-0.008087	0.03952	0.2243	0.003967	0.037842	-0.016937	0.13748	0.040741	-0.65704	-0.011597	-0.37521	-0.013123	-0.075531	0.2861	-0.031433	-0.020447	-0.00885	-0.16449	-0.037842	0.19608	-0.049286	-0.50781	-0.23377	-0.056458	0.006714	0.000153	0.21866	-0.00412	0.032806	0.13596	-0.00351	-0.019379
17.679	-0.015564	0.088348	0.14725	0.01358	-0.001221	-0.2417	-0.11734	0.025177	-0.47455	-0.10071	-0.18585	-0.017853	0.016327	0.30487	-0.002441	-0.031128	-0.067749	-0.16907	0.090942	0.089111	-0.10254	-0.45349	-0.26886	-0.068817	-0.013885	-0.00824	0.25375	-0.004578	0.067139	0.16144	0.002289	-0.022278
17.68	-0.006714	0.071106	0.04837	0.010376	-0.045624	-0.3624	-0.11948	0.002441	-0.39688	-0.065002	0.1326	-0.007477	0.048065	0.30121	0.30502	-0.018463	-0.075684	-0.092773	0.10834	0.027771	-0.096893	-0.29068	-0.28229	-0.050507	0.003815	-0.007019	0.39642	-0.002289	0.04776	-0.031128	0.000763	-0.014038
17.681	-0.020142	0.009003	0.078278	-0.025635	-0.036469	-0.23285	0.005646	-0.041656	-0.23438	-0.041199	0.12619	-0.015717	-0.012665	0.2388	0.22247	-0.011139	-0.050812	-0.076752	0.098572	-0.089264	-0.083466	-0.11688	-0.26001	-0.093079	-0.006561	-0.013428	0.50934	-0.003662	0.067749	0.035095	0.003967	-0.018005
17.682	-0.02655	-0.15854	-0.042572	-0.016632	-0.002899	0.078125	0.19073	-0.057983	-0.15961	-0.048218	0.10025	-0.01709	-0.016937	0.20157	-0.089111	-0.039978	-0.026703	0.014496	0.092316	-0.16159	-0.015717	0.023956	-0.25543	-0.045929	-0.008698	-0.014343	-0.27283	-0.002136	0.33218	0.12573	0.002747	-0.022125
17.683	-0.042114	-0.27664	-0.1149	-0.004272	-0.014648	0.16647	0.22995	-0.05249	-0.23117	-0.014648	0.18112	-0.018158	-0.054932	0.14954	-0.29327	-0.033112	-0.020447	-0.011139	0.049744	-0.12131	-0.034027	0.21027	-0.26245	-0.034943	0.007782	-0.005035	-0.92255	-0.003357	0.55359	0.073242	0.003357	-0.02655
17.684	-0.033112	-0.30807	-0.089417	-0.00351	-0.069885	0.31921	0.16342	-0.029144	-0.34363	-0.005188	0.22232	-0.027313	-0.09613	0.11231	0.14328	-0.014496	0.00885	-0.091705	0.053406	0.045166	-0.050659	0.2388	-0.18601	-0.070953	-0.013123	-0.000458	-0.14969	-0.003052	0.4068	0.02243	0.000153	-0.038452
17.685	-0.030365	-0.29572	-0.15869	0.005493	-0.17075	0.36285	0.13123	0.003815	-0.22018	0.003357	0.21683	-0.021515	-0.11963	0.035706	-0.22308	-0.006104	-0.017242	-0.10727	0.072784	0.079193	-0.039368	0.11429	-0.22018	-0.042877	-0.011444	0.001984	-0.1796	-0.004425	0.26489	-0.055084	0.00946	-0.032806
17.686	-0.035706	-0.31189	-0.23499	0.015717	-0.21179	0.35523	0.13825	0.039063	-0.11017	0.022888	0.18463	-0.019379	-0.12924	0.021973	-0.43762	0.003357	-0.081787	-0.10437	0.001984	0.074005	0.098114	-0.054626	-0.242	0.007629	0.020752	-0.012665	-0.24658	-0.006561	-0.059814	-0.014343	0.001526	-0.033569
17.687	-0.017242	-0.35324	-0.31189	0.00824	-0.17395	0.27664	0.11276	0.050354	-0.066986	0.008545	0.1268	-0.028381	-0.13031	-0.00824	0.19653	0.009155	-0.078735	-0.05249	-0.047455	0.004883	0.11093	-0.075989	-0.23224	0.000458	0.028992	-0.001221	-0.50446	-0.004425	-0.42252	-0.060883	0.002747	-0.036621
17.688	0.020752	-0.33829	-0.19211	0.019379	-0.0914	0.21133	0.13901	0.044098	-0.012665	0.001373	0.016479	-0.024261	-0.076294	-0.000763	0.1944	-0.009308	-0.070343	-0.007629	0.033875	-0.021973	0.084534	-0.085449	-0.17364	-0.057678	0.021057	0.005035	-0.82245	-0.003662	-0.21027	-0.10376	0.000458	-0.032654
17.689	0.008545	-0.3392	-0.078583	0.011597	0.12161	0.068512	0.056458	0.032043	0.028381	0.006714	-0.010071	-0.026245	-0.080261	0.043793	0.55344	-0.051117	-0.036316	-0.061188	0.03952	0.025635	0.025787	-0.17303	-0.1593	-0.095825	0.00412	-0.003204	-0.14511	-0.005493	-0.34149	-0.040894	0.001831	-0.032806
17.69	0.002441	-0.36728	0.031128	0.00473	0.16098	-0.055389	-0.007935	0.013428	-0.029907	0.006409	-0.089874	-0.03418	-0.11398	0.087433	0.36041	-0.048981	-0.010071	-0.092621	0.00351	-0.026398	-0.032349	-0.048218	-0.16083	-0.14877	0.00824	0.007629	0.11841	-0.007629	0.46204	-0.15533	0.002594	-0.026093
17.691	-0.002747	-0.33798	0.016327	0.006256	0.040131	0.10742	0.016785	-0.029449	-0.093079	0.00885	0.003204	-0.021515	-0.12573	0.1268	0.21942	-0.076904	0.029449	-0.087433	-0.033417	0.024872	-0.046692	0.020905	-0.16937	-0.056	0.033722	0.018158	0.13123	-0.005188	0.88913	-0.25055	0.000458	-0.018616
17.692	-0.054016	-0.37369	-0.047607	0.007019	-0.061798	0.31952	0.10086	-0.021973	-0.12146	0.015869	-0.020447	-0.029602	-0.10025	0.073547	-0.24017	-0.45013	0.091858	-0.10407	0.031128	0.03006	-0.059814	-0.035553	-0.21271	-0.061188	0.02243	0.010376	0.23209	-0.003815	0.53772	-0.15274	0.003052	-0.016022
